PathFileType	4	(X/Y/Z)	3_1_23_p0_0-500.trc
DataRate	CameraRate	NumFrames	NumMarkers	Units	OrigDataRate	OrigDataStartFrame	OrigNumFrames
60.0	60.0	7	27	m	60.0	125	501
Frame#	Time	RHip			RKnee			RAnkle			RBigToe			RSmallToe			RHeel			LHip			LKnee			LAnkle			LBigToe			LSmallToe			LHeel			Neck			Head			Nose			RShoulder			RElbow			RWrist			RThumb			RIndex			RPinky			LShoulder			LElbow			LWrist			LThumb			LIndex			LPinky			
		X1	Y1	Z1	X2	Y2	Z2	X3	Y3	Z3	X4	Y4	Z4	X5	Y5	Z5	X6	Y6	Z6	X7	Y7	Z7	X8	Y8	Z8	X9	Y9	Z9	X10	Y10	Z10	X11	Y11	Z11	X12	Y12	Z12	X13	Y13	Z13	X14	Y14	Z14	X15	Y15	Z15	X16	Y16	Z16	X17	Y17	Z17	X18	Y18	Z18	X19	Y19	Z19	X20	Y20	Z20	X21	Y21	Z21	X22	Y22	Z22	X23	Y23	Z23	X24	Y24	Z24	X25	Y25	Z25	X26	Y26	Z26	X27	Y27	Z27	
125	2.0833333333333335	0.1761173808324353	0.5443790287711848	1.199464324192543	0.15661307573750768	0.2803201038269625	1.3922080502482788	0.14530920159378818	0.40467697823003024	1.819625565675645	0.16457270329781387	0.1508247625827386	1.7454429848552844	0.19624445612635483	0.16987273821872187	1.7408663984210822	0.1452817489399958	0.48422940389183566	1.8949436267813509	-0.04534261058323713	0.5468374554885503	1.2005402034095258	-0.03253318784208674	0.28765856446943033	1.396359864278383	-0.01846267587293092	0.39286383042038503	1.8008566759990772	0.009951850769183564	0.17271543150616706	1.7577334633975727	-0.04019548934944734	0.25435498701855214	1.7793283437118572	-0.013088201155940189	0.4278153682485988	1.8394683564521994	0.10384187545538458	0.1784972413166536	0.8355827354803144	0.12976529474647125	0.022958397076035603	0.5770900081925592	0.12387224043037881	-0.0034603574373382206	0.7385223623628989	0.2404755842248351	0.18378709727067613	0.8056239630624383	0.5002132089683706	0.12087975485096365	0.8598442990203722	0.39019843029271256	-0.055517284704340704	0.6487101833956985	0.2776780516404283	-0.017659619073129625	0.6055567431855283	0.27100841672290366	-0.03405777113410139	0.5898636895592659	0.2957033969390884	-0.030408965178770352	0.6378152494277504	-0.03548690298242749	0.18782496378403735	0.7962208217941963	-0.2786510450372183	0.13016044220686002	0.8005490053285874	-0.1885257225924481	0.05144815234834147	0.6440561747778968	-0.05592540468347553	-0.013289539593870098	0.5988746005487653	-0.05755234022794948	0.0013410721326660578	0.5731784851206075	-0.11834425169862911	0.005239195378789631	0.5908443486826538
126	2.1	0.17609595093670619	0.54460129017649	1.1995064574303296	0.1538450275402913	0.26902270555351476	1.3872882432907399	0.15261278589543237	0.3995498907398973	1.8114773396736488	0.165284881497968	0.14869735544999158	1.7397623093454528	0.19818359844371583	0.17998098056746517	1.7466076143484548	0.1480565533883769	0.4993256841874412	1.9025688471683717	-0.04550809193099599	0.5486650368637975	1.1966497734373736	-0.03244289414100315	0.29062361677386406	1.3975975516488675	-0.018214671288842226	0.39309345991295536	1.8009995308418458	0.011169765436156671	0.18296591318314395	1.7632170192363388	-0.034232576268441825	0.2398361937525184	1.7697258913099791	-0.012429324399730447	0.4401825964968596	1.8532624729809706	0.10342218665578828	0.1780944102858894	0.8389386830602545	0.12970059440964987	0.013123220209999151	0.5794242087882139	0.12444740964015524	-0.0033743588491380655	0.7456398076546326	0.23810257514893676	0.173757362192993	0.8032004465906066	0.4743824577984164	0.04301822220903052	0.8141875512400714	0.40466074626497883	-0.012728412877720198	0.6605052561148825	0.27971776747053684	0.01890685493763902	0.610076450930886	0.2760511060599178	-0.010601958486157689	0.5927315750784771	0.3054083177517241	-0.012996524129313484	0.6456538150156405	-0.03353958834644529	0.19761436381762562	0.8028382768903862	-0.2786632703934558	0.1292646109633323	0.7964559537197673	-0.18858175619139406	0.05162107261305027	0.6439487673174938	-0.053383077751927396	0.008310629432533925	0.6055814198293766	-0.05657554773037522	0.012434381542695345	0.5753944277038777	-0.12397231402939488	0.014301987861707185	0.5981243342384949
127	2.1166666666666667	0.1762020443206739	0.5447161710862639	1.1994841772718723	0.14993929861891975	0.26656805846025455	1.3862395372198957	0.1510830871186874	0.38928562113574056	1.8099767125810213	0.16615019890638538	0.15040376682333315	1.7411243853559177	0.19711594093295	0.17048407273369312	1.7411532312083968	0.14835996605866086	0.5040268328222453	1.905134288464121	-0.04552175090963301	0.5485543959196206	1.1965236723309889	-0.034474380583196663	0.2781845014284978	1.3920210644856288	-0.01822526955913484	0.3931890052918789	1.8010931961219059	0.016641646757840543	0.15818820435602177	1.7441153772517817	-0.0274043025384291	0.2233316841086693	1.7654148990736032	-0.01157851402069644	0.44414839788067595	1.8590410728254494	0.10397652508220653	0.17698460977578265	0.8428594461502007	0.12693269299778284	0.011886609998601342	0.5844311272215803	0.12441375249481332	-0.0035729786519004933	0.745865685005928	0.23802574124130993	0.17369553991241338	0.807155534693776	0.4748702650847465	0.0454247497573463	0.8204055771147739	0.4080043749422939	-0.0036644163659643124	0.6652313964749001	0.27896880319055045	-0.02321668004668045	0.6010726464874155	0.27546510141939795	-0.03994202971737485	0.586124123527747	0.30521920242264283	-0.011550426879981594	0.6432688614641747	-0.034201562666655104	0.19783989107149488	0.8029530196433764	-0.2818889728983446	0.12704540001860637	0.7998344337442775	-0.18911999802492016	0.04058203464175465	0.6416905560953924	-0.05649801549939939	0.006188581547481722	0.6050676942525138	-0.055019451753591415	0.00039217941691462407	0.5767786271945854	-0.11506345090325075	0.006261981988801913	0.5959760480965218
128	2.1333333333333333	0.1786224121323972	0.5573667345262078	1.1996519709408167	0.14978346117433955	0.2665041499379325	1.386314981756786	0.14768407086392923	0.4178998313283412	1.8268187838313124	0.16631670622903505	0.15048804320195272	1.74107415920297	0.19912280297606194	0.18221315973370486	1.7478928482685951	0.1435068173914734	0.5038427528604061	1.9051576669888266	-0.04476795716564316	0.5488551314883425	1.192099454797363	-0.034506215525626854	0.2783931707433347	1.3921433680777762	-0.01813717428876611	0.3933671498880837	1.8012170272753352	0.016696615351621185	0.15831938800287687	1.7436331426617622	-0.021284029877506168	0.20953123718562044	1.7559421804845856	-0.006321208837099858	0.4524584332649796	1.863669642426224	0.1035156514419394	0.17657141324259662	0.8463035446472894	0.12974833147222356	0.022542831929305392	0.5913363670123378	0.12397830130027115	-0.003397725564170163	0.749546892657039	0.23770100959361096	0.17362163266509248	0.8071995782983492	0.5006483922883385	0.12159052435243625	0.8547820117159681	0.38719345059367555	-0.06611330413076885	0.6462831430173961	0.2681971480397768	-0.015601505423839038	0.6063256730771639	0.2698799921390609	-0.03719609504142092	0.5909990457118309	0.29105167625125616	-0.0491391495836759	0.6249087720453339	-0.027932028923145183	0.18577403359973668	0.7963774859890829	-0.27878366011405825	0.13061760727360708	0.8004762937551065	-0.1824973170927722	0.04061529040230476	0.6412395230289609	-0.057256838780562584	-0.004726981072814979	0.5997719797429867	-0.05290763647367773	-0.008259839822474654	0.5752075571467714	-0.09220995057808083	-0.03327026326213586	0.5877339110166756
129	2.15	0.17458417001811855	0.552728019119949	1.1892742073169529	0.1497682010944412	0.26692908156140943	1.3858025661376925	0.15113529166312997	0.3889857871114623	1.8098374027104498	0.16713527113802615	0.15245145593209314	1.7425343358086152	0.19827594978526356	0.17352303482315415	1.7428056895059234	0.14610011747550097	0.4880838274076642	1.8955986142471866	-0.04476565745305624	0.5491695125111347	1.1923050361393002	-0.03364068879079854	0.27849419421960747	1.3878721965393557	-0.018180306335272074	0.3932262932093794	1.8012740987497604	0.016884237331406673	0.15783721359183375	1.7436283779976136	-0.015159283492283954	0.19489800167443516	1.7474512075666702	-0.007060414171139202	0.4510743638541643	1.8634866995458832	0.10346677484441093	0.1766530341426348	0.8462953439205182	0.13263995931924924	0.02224929143688976	0.5909347234239115	0.12403303465609913	-0.00327746261826221	0.7497684141348726	0.2377296766738349	0.17359030810684445	0.8073104340634508	0.5006236507811926	0.12154130007499883	0.8546493563457787	0.3872505480112844	-0.06664558526888165	0.6461231782795221	0.26976270912876016	-0.0348132256897235	0.6026998741663697	0.2700106120155436	-0.037712327800544815	0.5910751053384002	0.2913340818873537	-0.04988827687853415	0.6282551275961155	-0.027889824851381213	0.18578262707347057	0.7962505330337879	-0.2786680847623161	0.13123952425459884	0.7967894450872789	-0.1823137600723516	0.04066449922209607	0.6411376668439784	-0.04840436985406026	0.009465438005432035	0.5998340676193802	-0.05121650168230255	0.0021678974008539956	0.5770418133991106	-0.08670272287209778	-0.042959285493386325	0.5861354702788171
130	2.1666666666666665	0.17534372471133824	0.554702259785742	1.1935424404880812	0.149723509293252	0.26693965664010233	1.3860283957729655	0.15415974178929873	0.4036172747703086	1.8223251362303718	0.1665955690830025	0.15279541398221555	1.742829089799621	0.1995486039975669	0.1848277870260705	1.7495052233769357	0.14479252884471835	0.5017494618115856	1.900477425532968	-0.04502546504474198	0.5502469470522582	1.1884915576814814	-0.03374014864722092	0.2783425190793293	1.387887524428123	-0.018229245622589582	0.3929939681702872	1.8009911701017263	0.01671500617367911	0.1580910247700628	1.7441138654777821	-0.02727581691035879	0.22322917125408293	1.7653829344490855	-0.011707360186589766	0.4434810373727468	1.8584662091971305	0.10356756554944986	0.17644217882986246	0.8464321390114457	0.12997879458360512	0.011687724567263896	0.5960794950081971	0.12402477781490143	-0.0030991353850812154	0.7499679322347493	0.23743806693741099	0.1724684148847008	0.8040313305407896	0.5002733649211861	0.12113045398497359	0.8598518892936053	0.381567239230045	-0.08401211812395092	0.6376238652214402	0.26537511424242133	-0.027012917148780624	0.6052460275618339	0.26826468932342373	-0.04576522318759168	0.587771291298847	0.28980171294457346	-0.05276001066017166	0.6225619832269498	-0.0337190251101926	0.19822533083650956	0.7994205642817016	-0.2754671694239785	0.1328816144027455	0.7931671058450925	-0.17360225268390905	0.0226169879990321	0.6371442546406073	-0.04716306548173025	0.01952434691959178	0.6087760655435813	-0.04619668055353102	0.014088796751341634	0.5819189303526366	-0.09230436747607883	-0.032493876606154444	0.5834541835705817
131	2.183333333333333	0.1744779721695388	0.5539179796284192	1.1850732315317791	0.14920222122214796	0.2679833063530778	1.3827481220708513	0.15344245873338644	0.40151702545126927	1.8170213953229608	0.16531770300552445	0.15437696132679493	1.7482212160674677	0.19950106970253925	0.1865262137507861	1.7506069935103687	0.14347417903792462	0.497491011087758	1.9022395610571723	-0.03830528539543975	0.5349207026428133	1.1827362602994944	-0.03980501892550108	0.29143654560444554	1.3941882683016056	-0.018265969508773457	0.39310977172203077	1.8011319329287687	0.01664882195471033	0.1583157217985865	1.7440845552969342	-0.027297579507935165	0.22332772684589486	1.765141517199338	-0.007475918745035789	0.44847786241066373	1.8611654336501704	0.10350748839264855	0.17627794213904532	0.8463803355496083	0.13319506085491875	0.02216121648101465	0.59816399588734	0.12401333401941936	-0.0031188243347401333	0.7500232996375381	0.2376672101267899	0.17360781107204543	0.8073145171342598	0.5002982644093324	0.12114448826796319	0.8598726841749119	0.38690115711596335	-0.06696121122321473	0.6460130777125013	0.2698350555369679	-0.03487269204988264	0.6026879744989507	0.27136304550914375	-0.05824079295717813	0.5840503955215832	0.2897752233404393	-0.05307167354429217	0.6222711118314017	-0.027882633116735566	0.18613374850194694	0.7962752233722281	-0.26877162020283296	0.12329700875383448	0.782984304121684	-0.16782564721881763	0.012679060632325198	0.6347276852350284	-0.042507346928232284	0.021972394778525882	0.6108287576892443	-0.045425908923162436	0.014798614477351087	0.5787903360082578	-0.08704121717774148	-0.043445899923959225	0.5772690531947106
